<svg width="24" height="24" viewBox="0 0 24 24" fill="none" xmlns="http://www.w3.org/2000/svg">
<path d="M2.99998 14.0001H4.99998V21.0001C4.99998 21.2654 5.10534 21.5197 5.29288 21.7073C5.48041 21.8948 5.73477 22.0001 5.99998 22.0001H18C18.2652 22.0001 18.5196 21.8948 18.7071 21.7073C18.8946 21.5197 19 21.2654 19 21.0001V14.0001H21C21.1932 14.0003 21.3824 13.9444 21.5445 13.8391C21.7065 13.7338 21.8346 13.5838 21.913 13.4071C21.9919 13.2306 22.0179 13.0349 21.9877 12.8439C21.9576 12.6529 21.8725 12.4747 21.743 12.3311L12.743 2.33115C12.364 1.90915 11.636 1.90915 11.257 2.33115L2.25698 12.3311C2.12767 12.4748 2.04277 12.6529 2.01255 12.8438C1.98232 13.0347 2.00807 13.2303 2.08668 13.4068C2.16529 13.5834 2.29339 13.7334 2.45548 13.8387C2.61757 13.944 2.8067 14.0001 2.99998 14.0001ZM8.94898 13.6841C8.97998 13.7791 9.76198 16.0001 12 16.0001C14.269 16.0001 15.042 13.7131 15.05 13.6891L16.95 14.3101C16.901 14.4611 15.703 18.0001 12 18.0001C8.29698 18.0001 7.09898 14.4611 7.04998 14.3111L8.94898 13.6841Z" fill="#979797"/>
</svg>
