<svg width="24" height="24" viewBox="0 0 24 24" fill="none" xmlns="http://www.w3.org/2000/svg">
<path fill-rule="evenodd" clip-rule="evenodd" d="M2.40002 6.0001C2.40002 4.67461 3.47454 3.6001 4.80002 3.6001H14.4C15.7255 3.6001 16.8 4.67461 16.8 6.0001V18.0001C16.8 19.3256 17.8745 20.4001 19.2 20.4001H4.80002C3.47454 20.4001 2.40002 19.3256 2.40002 18.0001V6.0001ZM6.00002 7.2001H13.2V12.0001H6.00002V7.2001ZM13.2 14.4001H6.00002V16.8001H13.2V14.4001Z" fill="#979797"/>
<path d="M18 8.3999H19.2C20.5255 8.3999 21.6 9.47442 21.6 10.7999V17.3999C21.6 18.394 20.7941 19.1999 19.8 19.1999C18.8059 19.1999 18 18.394 18 17.3999V8.3999Z" fill="#979797"/>
</svg>
