<svg width="38" height="40" viewBox="0 0 38 40" fill="none" xmlns="http://www.w3.org/2000/svg">
<path d="M11 10L7 0L15 4L19 0L23 4L31 0L27 10H11ZM27 40C15 40 11 40 11 40C-1 40 1 32 1 32C1 32 3 18 11 14H27C35 18 37 32 37 32C37 32 39 40 27 40ZM10 21C10 21.7956 10.3161 22.5587 10.8787 23.1213C11.4413 23.6839 12.2044 24 13 24C13.7956 24 14.5587 23.6839 15.1213 23.1213C15.6839 22.5587 16 21.7956 16 21C16 20.2044 15.6839 19.4413 15.1213 18.8787C14.5587 18.3161 13.7956 18 13 18C12.2044 18 11.4413 18.3161 10.8787 18.8787C10.3161 19.4413 10 20.2044 10 21ZM28 33C28 32.2044 27.6839 31.4413 27.1213 30.8787C26.5587 30.3161 25.7956 30 25 30C24.2044 30 23.4413 30.3161 22.8787 30.8787C22.3161 31.4413 22 32.2044 22 33C22 33.7956 22.3161 34.5587 22.8787 35.1213C23.4413 35.6839 24.2044 36 25 36C25.7956 36 26.5587 35.6839 27.1213 35.1213C27.6839 34.5587 28 33.7956 28 33ZM28 20.7L25.3 18L10 33.3L12.74 36L28 20.7Z" fill="#FCFCFC"/>
</svg>
