<svg width="40" height="40" viewBox="0 0 40 40" fill="none" xmlns="http://www.w3.org/2000/svg">
<path d="M20 40C8.954 40 0 31.046 0 20C0 8.954 8.954 0 20 0C31.046 0 40 8.954 40 20C40 31.046 31.046 40 20 40ZM13 24V28H18V32H22V28H24C25.3261 28 26.5979 27.4732 27.5355 26.5355C28.4732 25.5979 29 24.3261 29 23C29 21.6739 28.4732 20.4021 27.5355 19.4645C26.5979 18.5268 25.3261 18 24 18H16C15.7348 18 15.4804 17.8946 15.2929 17.7071C15.1054 17.5196 15 17.2652 15 17C15 16.7348 15.1054 16.4804 15.2929 16.2929C15.4804 16.1054 15.7348 16 16 16H27V12H22V8H18V12H16C14.6739 12 13.4021 12.5268 12.4645 13.4645C11.5268 14.4021 11 15.6739 11 17C11 18.3261 11.5268 19.5979 12.4645 20.5355C13.4021 21.4732 14.6739 22 16 22H24C24.2652 22 24.5196 22.1054 24.7071 22.2929C24.8946 22.4804 25 22.7348 25 23C25 23.2652 24.8946 23.5196 24.7071 23.7071C24.5196 23.8946 24.2652 24 24 24H13Z" fill="#FCFCFC"/>
</svg>
