<svg width="38" height="38" viewBox="0 0 38 38" fill="none" xmlns="http://www.w3.org/2000/svg">
<path d="M0 2C0 0.89542 0.89544 0 2 0C3.10456 0 4 0.89544 4 2H36C37.1046 2 38 2.89544 38 4C38 5.10456 37.1046 6 36 6H4V37C4 37.5522 3.55228 38 3 38H1C0.44772 38 0 37.5522 0 37V2Z" fill="#FCFCFC"/>
<path d="M6 9.5C6 8.67158 6.67158 8 7.5 8H34.5C35.3284 8 36 8.67158 36 9.5V26.5C36 29.5376 33.5376 32 30.5 32H11.5C8.46244 32 6 29.5376 6 26.5V9.5ZM14 18.92V25C14 25.5524 14.4478 26 15 26H18.5C18.7762 26 19 25.7762 19 25.5V23C19 22.4478 19.4478 22 20 22H22C22.5522 22 23 22.4478 23 23V25.5C23 25.7762 23.2238 26 23.5 26H27C27.5522 26 28 25.5524 28 25V18.92C28 18.336 27.7448 17.7814 27.3016 17.4014L21.6508 12.5579C21.2764 12.2369 20.7236 12.2369 20.3492 12.5579L14.6984 17.4014C14.2552 17.7814 14 18.336 14 18.92Z" fill="#FCFCFC"/>
</svg>
